<?xml version="1.0" encoding="UTF-8" standalone="no"?>
<svg width="640" xmlns="http://www.w3.org/2000/svg" height="480">
 <g id="Layer_1" opacity=".45">
  <g id="svg_1">
   <g id="surface0" fill="#00007f">
    <path id="svg_2" d="m192.31 104.86c9.5283-3.8038 20.063-1.1954 29.076 2.7977 10.057 4.726 20.331 11.602 24.457 22.396 1.851 4.4048 0.63583 9.5443-2.5443 12.997-2.502 2.1374-6.0608 1.5411-9.0592 1.2387-6.8059-1.461-10.973-7.5153-16.262-11.481-4.5847-4.0355-9.4652-8.4045-15.671-9.5208-5.5361-0.91468-10.345 2.7488-13.894 6.5488-5.3402 6.5874-8.7135 14.504-11.344 22.497-1.7088 6.9708-5.3449 13.622-4.9069 20.979-0.51999-6.7862-2.4558-13.391-2.6414-20.211-0.34666-8.7926 0.76866-17.634 2.9767-26.136 4.0496-9.111 10.308-18.129 19.812-22.106z" stroke="#000" stroke-miterlimit="10" stroke-width=".1"/>
    <path id="svg_3" d="m192.31 104.86c9.5283-3.8038 20.063-1.1954 29.076 2.7977 10.057 4.726 20.331 11.602 24.457 22.396 1.851 4.4048 0.63583 9.5443-2.5443 12.997-2.502 2.1374-6.0608 1.5411-9.0592 1.2387-6.8059-1.461-10.973-7.5153-16.262-11.481-4.5847-4.0355-9.4652-8.4045-15.671-9.5208-5.5361-0.91468-10.345 2.7488-13.894 6.5488-5.3402 6.5874-8.7135 14.504-11.344 22.497-1.7088 6.9708-5.3449 13.622-4.9069 20.979-0.51999-6.7862-2.4558-13.391-2.6414-20.211-0.34666-8.7926 0.76866-17.634 2.9767-26.136 4.0496-9.111 10.308-18.129 19.812-22.106z"/>
    <path id="svg_4" d="m279.18 110.68c6.8992-0.8007 14.15 1.9056 18.78 7.0998 3.1406 3.866 5.2498 8.7361 5.2158 13.767-0.60855 6.1173-3.687 12.162-8.8237 15.678-6.0552 4.2917-14.332 5.1857-21.146 2.2109-10.123-3.8462-16.018-16.877-10.815-26.72 2.9277-6.6957 9.6772-11.052 16.789-12.036z" stroke="#000" stroke-miterlimit="10" stroke-width=".1"/>
    <path id="svg_5" d="m279.18 110.68c6.8992-0.8007 14.15 1.9056 18.78 7.0998 3.1406 3.866 5.2498 8.7361 5.2158 13.767-0.60855 6.1173-3.687 12.162-8.8237 15.678-6.0552 4.2917-14.332 5.1857-21.146 2.2109-10.123-3.8462-16.018-16.877-10.815-26.72 2.9277-6.6957 9.6772-11.052 16.789-12.036z"/>
    <path id="svg_6" d="m351 146.24c0.4079-0.022614 0.8205-0.032974 1.2369-0.025436-0.17334 3.6286 0.7724 7.2543 0.17328 10.869-0.95801 6.2134-3.4599 12.049-6.1701 17.676-5.9534 13.28-17.211 24.247-30.861 29.408-6.2661 2.2099-13.7 2.0404-19.347-1.7324-9.1317-5.9619-16.314-15.056-19.454-25.553-1.9886-5.669-2.0573-12.477 1.3612-17.614 1.7097-2.2514 4.0186-4.7656 7.1074-4.597 3.1915 0.29486 6.0438 2.2118 7.9712 4.71 4.5376 5.9562 5.4871 13.703 9.2278 20.063 3.1293 4.1014 8.1897 8.9734 13.784 6.5742 6.7419-2.8505 12.416-7.6989 17.898-12.453 6.9312-5.961 11.755-13.918 15.606-22.112 0.77338-1.6438 1.3132-3.3959 1.4658-5.213z" stroke="#000" stroke-miterlimit="10" stroke-width=".1"/>
    <path id="svg_7" d="m351 146.24c0.4079-0.022614 0.8205-0.032974 1.2369-0.025436-0.17334 3.6286 0.7724 7.2543 0.17328 10.869-0.95801 6.2134-3.4599 12.049-6.1701 17.676-5.9534 13.28-17.211 24.247-30.861 29.408-6.2661 2.2099-13.7 2.0404-19.347-1.7324-9.1317-5.9619-16.314-15.056-19.454-25.553-1.9886-5.669-2.0573-12.477 1.3612-17.614 1.7097-2.2514 4.0186-4.7656 7.1074-4.597 3.1915 0.29486 6.0438 2.2118 7.9712 4.71 4.5376 5.9562 5.4871 13.703 9.2278 20.063 3.1293 4.1014 8.1897 8.9734 13.784 6.5742 6.7419-2.8505 12.416-7.6989 17.898-12.453 6.9312-5.961 11.755-13.918 15.606-22.112 0.77338-1.6438 1.3132-3.3959 1.4658-5.213z"/>
    <path id="svg_8" d="m182.57 184.33c4.0101-3.3959 9.9324-3.0662 14.596-1.3678 4.6855 1.9923 9.6216 3.5316 13.899 6.3651 6.642 4.2559 12.989 9.0281 18.668 14.51 6.4159 5.1866 12.374 10.972 17.48 17.465 3.768 4.4321 7.7018 9.6103 7.405 15.748-2.7836 8.9433-10.447 15.482-18.419 19.858-10.573 5.376-22.366 7.5087-33.666 10.808-4.8871 1.5778-10.017 2.1524-15.099 2.6997-5.7547 0.31088-11.54 1.4978-17.291 0.47946 3.6851-2.6781 8.1464-3.8697 12.197-5.8536 11.631-5.0208 22.578-11.458 33.91-17.1 4.8004-2.3239 9.5019-5.2856 12.247-10.017-0.14696-1.04-0.29015-2.0771-0.42862-3.1114-3.2263-3.2659-7.2091-5.6002-11.314-7.5784-4.79 3.9592-10.312 6.9708-14.724 11.391-12.108 9.013-25.493 16.079-38.388 23.876-17.359 9.7563-33.782 21.13-51.471 30.311-1.0305 0.36926-2.0865 0.65659-3.167 0.86288 6.7927-7.4013 14.703-13.7 21.391-21.203 9.6517-10.11 19.303-20.225 29.373-29.922 10.635-10.24 20.972-20.782 30.828-31.776-4.157-3.8433-9.5245-7.3843-10.788-13.278-1.201-4.4575-0.49455-9.7233 2.7629-13.165z" stroke="#000" stroke-miterlimit="10" stroke-width=".1"/>
    <path id="svg_9" d="m182.57 184.33c4.0101-3.3959 9.9324-3.0662 14.596-1.3678 4.6855 1.9923 9.6216 3.5316 13.899 6.3651 6.642 4.2559 12.989 9.0281 18.668 14.51 6.4159 5.1866 12.374 10.972 17.48 17.465 3.768 4.4321 7.7018 9.6103 7.405 15.748-2.7836 8.9433-10.447 15.482-18.419 19.858-10.573 5.376-22.366 7.5087-33.666 10.808-4.8871 1.5778-10.017 2.1524-15.099 2.6997-5.7547 0.31088-11.54 1.4978-17.291 0.47946 3.6851-2.6781 8.1464-3.8697 12.197-5.8536 11.631-5.0208 22.578-11.458 33.91-17.1 4.8004-2.3239 9.5019-5.2856 12.247-10.017-0.14696-1.04-0.29015-2.0771-0.42862-3.1114-3.2263-3.2659-7.2091-5.6002-11.314-7.5784-4.79 3.9592-10.312 6.9708-14.724 11.391-12.108 9.013-25.493 16.079-38.388 23.876-17.359 9.7563-33.782 21.13-51.471 30.311-1.0305 0.36926-2.0865 0.65659-3.167 0.86288 6.7927-7.4013 14.703-13.7 21.391-21.203 9.6517-10.11 19.303-20.225 29.373-29.922 10.635-10.24 20.972-20.782 30.828-31.776-4.157-3.8433-9.5245-7.3843-10.788-13.278-1.201-4.4575-0.49455-9.7233 2.7629-13.165z"/>
   </g>
  </g>
 </g>
</svg>
