<?xml version="1.0" encoding="UTF-8" standalone="no"?>
<svg width="640" xmlns="http://www.w3.org/2000/svg" height="480">
 <g id="layer1">
  <path id="path8" stroke-linejoin="round" d="m319.06 461.31c-119.49 0-216.47-88.263-216.47-197 0-54.159 24.155-103.13 63.074-138.74l0.1833 0.1668c7.8679-9.8853 20.576-16.373 35.004-16.373 23.897 0 43.312 17.641 43.312 39.389 0 13.336-7.3279 25.088-18.479 32.217l0.1527 0.139c-23.386 21.434-38.028 50.7-38.028 83.198 0 65.558 58.753 118.78 131.13 118.78 72.374 0 131.1-53.22 131.1-118.78 0-29.659-12.257-56.556-32.163-77.333-11.841-7.0331-19.732-19.149-19.732-32.968 0-21.748 19.415-39.417 43.312-39.417 11.683 0 22.235 4.2934 30.025 11.147l0.6108-0.556c39.148 35.631 63.41 84.788 63.41 139.13 0 108.74-96.952 197-216.44 197zm-0.0305-195.64c-23.983 0-43.282-17.882-43.282-40.112v-158.92c0-22.23 19.298-40.112 43.282-40.112 23.983 0 43.312 17.881 43.312 40.112v158.92c0 22.23-19.329 40.112-43.312 40.112z" stroke-opacity=".841" fill-rule="evenodd" stroke-linecap="round" stroke-dasharray="7.6116890 7.6116890" stroke-width="3.806"/>
 </g>
</svg>
